<svg xmlns="http://www.w3.org/2000/svg" width="2859" height="1745" viewBox="0 0 2859 1745" fill="none"><g clip-path="url(#clip0_286_9525)"><path d="M56.1215 0H186.1C217.096 0 242.221 25.0765 242.221 56.0135V548.434C242.221 548.434 487.059 320.354 963.672 341.025C998.084 342.52 1025.11 371.065 1025.11 405.43V1226.62C1025.11 1257.55 999.981 1282.63 968.984 1282.63H833.094C802.098 1282.63 776.973 1257.55 776.973 1226.62V607.418C776.973 607.418 425.425 604.468 251.109 946.509V1226.62C251.109 1257.55 225.984 1282.63 194.987 1282.63H56.1215C25.1248 1282.63 0 1257.55 0 1226.62V56.0135C0 25.0765 25.1248 0 56.1215 0Z" fill="#2DCCD3"></path><path d="M2430.61 464.423C2430.61 397.653 2376.39 343.525 2309.49 343.525C2242.6 343.525 2188.37 397.653 2188.37 464.423V1161.76C2188.37 1228.53 2242.6 1282.66 2309.49 1282.66C2376.39 1282.66 2430.61 1228.53 2430.61 1161.76V464.423Z" fill="#2DCCD3"></path><path d="M2858.96 464.423C2858.96 397.653 2804.74 343.525 2737.84 343.525C2670.95 343.525 2616.72 397.653 2616.72 464.423V1161.76C2616.72 1228.53 2670.95 1282.66 2737.84 1282.66C2804.74 1282.66 2858.96 1228.53 2858.96 1161.76V464.423Z" fill="#2DCCD3"></path><path d="M2309.49 287.483C2389.03 287.483 2453.51 223.128 2453.51 143.741C2453.51 64.3552 2389.03 0 2309.49 0C2229.95 0 2165.47 64.3552 2165.47 143.741C2165.47 223.128 2229.95 287.483 2309.49 287.483Z" fill="#FE7235"></path><path d="M2737.47 287.489C2804.16 287.489 2858.22 233.531 2858.22 166.97C2858.22 100.409 2804.16 46.4512 2737.47 46.4512C2670.78 46.4512 2616.72 100.409 2616.72 166.97C2616.72 233.531 2670.78 287.489 2737.47 287.489Z" fill="#FFCE40"></path><path d="M1685.4 355.175C1483.36 339.966 1356.76 362.63 1302.18 376.305C1284.84 380.65 1274.26 398.172 1278.63 415.534L1304.89 520.485C1314.18 557.382 1351.61 579.887 1388.52 570.558C1446.55 555.987 1531.77 538.007 1598.98 538.007C1712 538.007 1771.8 584.452 1762.97 699.469H1559.14C1559.14 699.469 1217.91 703.874 1217.91 966.998C1217.91 1230.12 1512.58 1269.97 1512.58 1269.97C1512.58 1269.97 1826.1 1318.29 1947.95 1141.34C1947.95 1141.34 1995.63 1082.73 1995.63 889.217V629.362C1995.63 629.362 1964.59 376.185 1685.38 355.155L1685.4 355.175ZM1765.17 965.085C1765.17 1032.56 1710.37 1087.28 1642.74 1087.28H1555.76C1555.76 1087.28 1458.26 1072.93 1461.59 983.344C1464.93 893.762 1555.76 875.344 1555.76 875.344H1765.15V965.085H1765.17Z" fill="#2DCCD3"></path><path d="M2308.41 1476.43C2249.51 1472.01 2212.6 1478.6 2196.68 1482.59C2191.63 1483.87 2188.55 1488.97 2189.81 1494.03L2197.48 1524.63C2200.2 1535.4 2211.1 1541.95 2221.87 1539.22C2238.78 1534.98 2263.63 1529.73 2283.22 1529.73C2316.18 1529.73 2333.61 1543.27 2331.03 1576.8H2271.6C2271.6 1576.8 2172.12 1578.07 2172.12 1654.8C2172.12 1731.52 2258.02 1743.12 2258.02 1743.12C2258.02 1743.12 2349.43 1757.22 2384.94 1705.63C2384.94 1705.63 2398.84 1688.55 2398.84 1632.13V1556.37C2398.84 1556.37 2389.79 1482.55 2308.39 1476.43H2308.41ZM2331.67 1654.24C2331.67 1673.91 2315.7 1689.86 2295.98 1689.86H2270.62C2270.62 1689.86 2242.2 1685.67 2243.16 1659.56C2244.14 1633.45 2270.62 1628.07 2270.62 1628.07H2331.67V1654.24Z" fill="#2DCCD3"></path><path d="M2111.9 1583.36V1744.9H2052.1V1566.83C2052.1 1542.29 2033.29 1521.42 2008.76 1519.79C2006.03 1519.61 2003.25 1519.51 2000.48 1519.51C1997.7 1519.51 1995.1 1519.59 1992.45 1519.77C1967.9 1521.34 1949.07 1542.25 1949.07 1566.81V1744.9H1889.27C1889.27 1744.9 1889.47 1639.03 1889.45 1577.1C1889.45 1545.88 1864.55 1519.67 1833.27 1519.53C1833.07 1519.53 1832.87 1519.53 1832.65 1519.53C1807.11 1519.59 1786.22 1540.48 1786.22 1565.95V1744.9H1726.42V1571.55C1726.42 1532.41 1749.25 1496.17 1785.46 1481.12C1785.72 1481.02 1785.96 1480.92 1786.22 1480.8C1800.54 1474.92 1816.23 1471.71 1832.65 1471.71C1853.1 1471.71 1872.34 1476.67 1889.27 1485.56C1898.62 1490.36 1907.23 1496.35 1914.92 1503.36C1924.94 1494.27 1936.43 1486.86 1949.07 1481.49C1963.85 1475.22 1980.11 1471.73 1997.2 1471.73C2016.95 1471.73 2035.59 1476.35 2052.12 1484.72C2054.08 1485.7 2056 1486.72 2057.9 1487.79C2091.97 1507.11 2111.92 1544.27 2111.92 1583.38L2111.9 1583.36Z" fill="#2DCCD3"></path><path d="M2616.74 1471.38V1517.49C2605.78 1517.49 2597.89 1517.17 2591.52 1516.87C2578.97 1516.27 2566.39 1518.19 2554.83 1523.09C2550.23 1525.04 2545.98 1527.36 2543.36 1529.99C2534.94 1538.4 2526.51 1553.19 2526.51 1565.97V1744.89H2469.91V1568.36C2469.91 1529.19 2492.71 1492.97 2528.96 1477.94C2529.18 1477.82 2529.48 1477.72 2529.7 1477.6C2544.02 1471.72 2559.72 1472 2576.14 1472C2585.3 1472 2603.66 1471.4 2616.74 1471.4V1471.38Z" fill="#2DCCD3"></path><path d="M2718.26 1744.89H2718.14V1740.09C2718.14 1741.72 2718.2 1743.32 2718.26 1744.89Z" fill="#2DCCD3"></path><path d="M2858.83 1696.21V1744.86H2806.8C2805.66 1744.86 2804.54 1744.86 2803.46 1744.8C2758.45 1743.11 2722.16 1707.39 2719.72 1662.7C2719.66 1661.12 2719.6 1659.53 2719.6 1657.89V1511.58H2674.52V1473.27H2719.6V1398.78H2775.72V1473.27H2823.73V1511.58H2775.72V1635.81C2775.72 1636.07 2775.72 1636.32 2775.72 1636.58C2775.72 1699.08 2804.2 1696.23 2837.56 1696.23H2858.85L2858.83 1696.21Z" fill="#2DCCD3"></path><path d="M2805.35 1744.9H2802.02V1744.84C2803.09 1744.9 2804.23 1744.9 2805.35 1744.9Z" fill="#2DCCD3"></path></g><defs><clipPath id="clip0_286_9525"><rect width="2859" height="1744.89" fill="white"></rect></clipPath></defs></svg>